<svg width="107" height="23" viewBox="0 0 107 23" fill="none" xmlns="http://www.w3.org/2000/svg">
<path d="M10.0312 5.25858C9.96302 4.57108 9.67041 4.03699 9.15336 3.6563C8.63632 3.27562 7.93461 3.08528 7.04825 3.08528C6.44598 3.08528 5.93746 3.17051 5.52268 3.34096C5.10791 3.50574 4.78973 3.73585 4.56814 4.0313C4.35223 4.32676 4.24427 4.66199 4.24427 5.03699C4.23291 5.34949 4.29825 5.62221 4.4403 5.85517C4.58802 6.08812 4.78973 6.28983 5.04541 6.46028C5.30109 6.62506 5.59655 6.76994 5.93177 6.89494C6.267 7.01426 6.62496 7.11653 7.00564 7.20176L8.57382 7.57676C9.33518 7.74721 10.034 7.97449 10.6704 8.25858C11.3068 8.54267 11.8579 8.8921 12.3238 9.30687C12.7897 9.72165 13.1505 10.2103 13.4062 10.7728C13.6676 11.3353 13.8011 11.9802 13.8068 12.7074C13.8011 13.7756 13.5284 14.7018 12.9886 15.4859C12.4545 16.2643 11.6818 16.8694 10.6704 17.3012C9.66473 17.7273 8.45166 17.9404 7.03121 17.9404C5.62211 17.9404 4.39484 17.7245 3.34939 17.2927C2.30961 16.8609 1.49711 16.2216 0.911888 15.3751C0.332342 14.5228 0.0283647 13.4688 -4.44055e-05 12.2131H3.57098C3.61075 12.7984 3.77836 13.287 4.07382 13.679C4.37496 14.0654 4.77552 14.358 5.27552 14.5569C5.78121 14.7501 6.35223 14.8466 6.98859 14.8466C7.61359 14.8466 8.15621 14.7557 8.61643 14.5739C9.08234 14.3921 9.44314 14.1393 9.69882 13.8154C9.9545 13.4915 10.0823 13.1194 10.0823 12.6989C10.0823 12.3069 9.96587 11.9773 9.73291 11.7103C9.50564 11.4432 9.17041 11.216 8.72723 11.0285C8.28973 10.841 7.7528 10.6705 7.11643 10.5171L5.21586 10.0398C3.74427 9.68187 2.58234 9.12221 1.73007 8.36085C0.877797 7.59949 0.454501 6.57392 0.460183 5.28415C0.454501 4.22733 0.735751 3.30403 1.30393 2.51426C1.8778 1.72449 2.66473 1.10801 3.66473 0.664828C4.66473 0.221646 5.80109 5.48363e-05 7.07382 5.48363e-05C8.36927 5.48363e-05 9.49996 0.221646 10.4659 0.664828C11.4375 1.10801 12.1931 1.72449 12.7329 2.51426C13.2727 3.30403 13.5511 4.2188 13.5681 5.25858H10.0312ZM19.8515 10.1251V17.6932H16.2208V0.238691H19.7492V6.91199H19.9027C20.1981 6.13926 20.6754 5.53415 21.3345 5.09665C21.9936 4.65346 22.8203 4.43187 23.8146 4.43187C24.7237 4.43187 25.5163 4.63074 26.1924 5.02846C26.8742 5.42051 27.4027 5.98585 27.7777 6.72449C28.1583 7.45744 28.3458 8.33528 28.3402 9.35801V17.6932H24.7095V10.0057C24.7152 9.19892 24.5106 8.57108 24.0958 8.12221C23.6867 7.67335 23.1129 7.44892 22.3742 7.44892C21.8799 7.44892 21.4424 7.55403 21.0617 7.76426C20.6867 7.97449 20.3913 8.28131 20.1754 8.68471C19.9652 9.08244 19.8572 9.56256 19.8515 10.1251ZM37.1122 17.9489C35.7883 17.9489 34.6434 17.6677 33.6775 17.1052C32.7173 16.537 31.9758 15.7472 31.4531 14.7359C30.9304 13.7188 30.669 12.5398 30.669 11.1989C30.669 9.84665 30.9304 8.66483 31.4531 7.65346C31.9758 6.63642 32.7173 5.84665 33.6775 5.28415C34.6434 4.71596 35.7883 4.43187 37.1122 4.43187C38.436 4.43187 39.5781 4.71596 40.5383 5.28415C41.5042 5.84665 42.2485 6.63642 42.7713 7.65346C43.294 8.66483 43.5554 9.84665 43.5554 11.1989C43.5554 12.5398 43.294 13.7188 42.7713 14.7359C42.2485 15.7472 41.5042 16.537 40.5383 17.1052C39.5781 17.6677 38.436 17.9489 37.1122 17.9489ZM37.1292 15.1364C37.7315 15.1364 38.2343 14.966 38.6377 14.6251C39.0411 14.2785 39.3451 13.8069 39.5497 13.2103C39.7599 12.6137 39.865 11.9347 39.865 11.1734C39.865 10.412 39.7599 9.73301 39.5497 9.13642C39.3451 8.53983 39.0411 8.06824 38.6377 7.72165C38.2343 7.37506 37.7315 7.20176 37.1292 7.20176C36.5213 7.20176 36.0099 7.37506 35.5951 7.72165C35.186 8.06824 34.8764 8.53983 34.6661 9.13642C34.4616 9.73301 34.3593 10.412 34.3593 11.1734C34.3593 11.9347 34.4616 12.6137 34.6661 13.2103C34.8764 13.8069 35.186 14.2785 35.5951 14.6251C36.0099 14.966 36.5213 15.1364 37.1292 15.1364ZM45.9161 22.6023V4.60233H49.4957V6.80119H49.6576C49.8167 6.44892 50.0468 6.09096 50.348 5.72733C50.6548 5.35801 51.0525 5.05119 51.5411 4.80687C52.0355 4.55687 52.6491 4.43187 53.3821 4.43187C54.3366 4.43187 55.2173 4.68187 56.0241 5.18187C56.8309 5.67619 57.4758 6.42335 57.9588 7.42335C58.4417 8.41767 58.6832 9.66483 58.6832 11.1648C58.6832 12.6251 58.4474 13.858 57.9758 14.8637C57.5099 15.8637 56.8735 16.6222 56.0667 17.1393C55.2656 17.6506 54.3679 17.9063 53.3735 17.9063C52.669 17.9063 52.0696 17.7898 51.5752 17.5569C51.0866 17.3239 50.686 17.0313 50.3735 16.679C50.061 16.3211 49.8224 15.9603 49.6576 15.5966H49.5468V22.6023H45.9161ZM49.4701 11.1478C49.4701 11.9262 49.5781 12.6052 49.794 13.1847C50.0099 13.7643 50.3224 14.216 50.7315 14.5398C51.1406 14.858 51.6377 15.0171 52.223 15.0171C52.8139 15.0171 53.3139 14.8552 53.723 14.5313C54.1321 14.2018 54.4417 13.7472 54.6519 13.1677C54.8679 12.5824 54.9758 11.9091 54.9758 11.1478C54.9758 10.3921 54.8707 9.72733 54.6605 9.15346C54.4502 8.5796 54.1406 8.13074 53.7315 7.80687C53.3224 7.48301 52.8196 7.32108 52.223 7.32108C51.6321 7.32108 51.1321 7.47733 50.723 7.78983C50.3196 8.10233 50.0099 8.54551 49.794 9.11937C49.5781 9.69324 49.4701 10.3694 49.4701 11.1478ZM61.1718 17.6932V0.238691H64.8622V7.4404H72.3536V0.238691H76.0355V17.6932H72.3536V10.483H64.8622V17.6932H61.1718ZM87.4048 12.1194V4.60233H91.0355V17.6932H87.5497V15.3154H87.4133C87.1179 16.0824 86.6264 16.6989 85.9389 17.1648C85.2571 17.6307 84.4247 17.8637 83.4417 17.8637C82.5667 17.8637 81.7968 17.6648 81.1321 17.2671C80.4673 16.8694 79.9474 16.304 79.5724 15.5711C79.2031 14.8381 79.0156 13.9603 79.0099 12.9376V4.60233H82.6406V12.2898C82.6463 13.0626 82.8536 13.6734 83.2627 14.1222C83.6718 14.5711 84.2201 14.7955 84.9076 14.7955C85.3451 14.7955 85.7542 14.6961 86.1349 14.4972C86.5156 14.2927 86.8224 13.9915 87.0554 13.5938C87.294 13.1961 87.4105 12.7046 87.4048 12.1194ZM94.0078 17.6932V0.238691H97.6385V6.80119H97.7492C97.9083 6.44892 98.1385 6.09096 98.4396 5.72733C98.7464 5.35801 99.1441 5.05119 99.6328 4.80687C100.127 4.55687 100.741 4.43187 101.474 4.43187C102.428 4.43187 103.309 4.68187 104.116 5.18187C104.923 5.67619 105.567 6.42335 106.05 7.42335C106.533 8.41767 106.775 9.66483 106.775 11.1648C106.775 12.6251 106.539 13.858 106.067 14.8637C105.602 15.8637 104.965 16.6222 104.158 17.1393C103.357 17.6506 102.459 17.9063 101.465 17.9063C100.761 17.9063 100.161 17.7898 99.6669 17.5569C99.1782 17.3239 98.7777 17.0313 98.4652 16.679C98.1527 16.3211 97.914 15.9603 97.7492 15.5966H97.5873V17.6932H94.0078ZM97.5617 11.1478C97.5617 11.9262 97.6697 12.6052 97.8856 13.1847C98.1015 13.7643 98.414 14.216 98.8231 14.5398C99.2322 14.858 99.7294 15.0171 100.315 15.0171C100.905 15.0171 101.405 14.8552 101.815 14.5313C102.224 14.2018 102.533 13.7472 102.744 13.1677C102.959 12.5824 103.067 11.9091 103.067 11.1478C103.067 10.3921 102.962 9.72733 102.752 9.15346C102.542 8.5796 102.232 8.13074 101.823 7.80687C101.414 7.48301 100.911 7.32108 100.315 7.32108C99.7237 7.32108 99.2237 7.47733 98.8146 7.78983C98.4112 8.10233 98.1015 8.54551 97.8856 9.11937C97.6697 9.69324 97.5617 10.3694 97.5617 11.1478Z" fill="#111827"/>
</svg>
